<?xml version="1.0" encoding="utf-8"?>
<!-- Generator: Adobe Illustrator 21.1.0, SVG Export Plug-In . SVG Version: 6.00 Build 0)  -->
<svg version="1.1" xmlns="http://www.w3.org/2000/svg" xmlns:xlink="http://www.w3.org/1999/xlink" x="0px" y="0px"
	 viewBox="0 0 10000 10000" style="enable-background:new 0 0 10000 10000;" xml:space="preserve">
<style type="text/css">
	.st0{display:none;}
	.st1{fill:none;stroke:#000000;stroke-width:15;stroke-linecap:round;stroke-linejoin:round;stroke-miterlimit:10;}
	.st2{fill:#FFFFFF;stroke:#000000;stroke-width:15;stroke-miterlimit:10;}
</style>
<g id="Camada_1" class="st0">
</g>
<g id="Camada_2">
	<polygon class="st1" points="6163.9,6917.9 2167,410.5 2167,377.5 3422.2,377.5 7452.2,6917.9 	"/>
	<polygon class="st1" points="2365.2,6917.9 4182,3978 4842.6,5002.1 3620.4,6917.9 	"/>
	<polygon class="st1" points="5602.4,3713.8 7121.9,1269.4 8178.9,1269.4 8178.9,377.5 6395.2,377.5 4974.8,2689.8 4974.8,2722.8 	
		"/>
</g>
<g id="Camada_3">
	<g>
		<path class="st2" d="M2451.3,7256.2h970.9v195.2H2684v599.1h682v192.6h-682v815.8h-232.7V7256.2z"/>
		<path class="st2" d="M3986.6,7256.2v1802.7h-232.7V7256.2H3986.6z"/>
		<path class="st2" d="M4393.1,9058.9V7256.2h254.1l577.7,912c133.7,211.3,238,401.2,323.6,585.7l5.3-2.7
			c-21.4-240.7-26.7-460-26.7-740.9v-754.2h219.3v1802.7h-235.4l-572.4-914.7c-125.7-200.6-246.1-406.5-337-601.8l-8,2.7
			c13.4,227.3,18.7,444,18.7,743.5v770.3H4393.1z"/>
		<path class="st2" d="M6152.9,7280.3c141.8-21.4,310.3-37.4,494.8-37.4c334.3,0,572.4,77.6,730.2,224.7
			c160.5,147.1,254.1,355.7,254.1,647.3c0,294.2-90.9,534.9-259.4,700.7c-168.5,168.5-446.7,259.4-797,259.4
			c-165.8,0-304.9-8-422.6-21.4V7280.3z M6385.6,8874.4c58.8,10.7,144.4,13.4,235.4,13.4c497.5,0,767.6-278.2,767.6-764.9
			c2.7-425.3-238-695.4-730.2-695.4c-120.4,0-211.3,10.7-272.8,24.1V8874.4z"/>
	</g>
</g>
</svg>
